# xmcd CD database file generated by OrangeCD 6.1
#
# Track frame offsets:
#	150
#	23780
#	45785
#	65150
#	83975
#	100413
#	115918
#	159265
#	176258
#	186640
#	210693
#	225088
#	238938
#	254545
#	290753
#
# Disc length: 4217 seconds
#
# Revision: 0
# Processed by: cddbd v1.5.2PL0 Copyright (c) Steve Scherf et al.
# Submitted via: OrangeCD 6.1
#
DISCID=ce10770f
DTITLE=Gary Sloan - Blue Shoes featuring Harvey Mandel
DYEAR=1992
DGENRE=
TTITLE0=Blow Your Blues Away
TTITLE1=All Around The World
TTITLE2=Big Rear Window
TTITLE3=So Many Roads
TTITLE4=I Got To Go
TTITLE5=Walkin' By Myself
TTITLE6=Cristo Redentor
TTITLE7=For My Wife-Part Two
TTITLE8=Show Me
TTITLE9=Commin' Home
TTITLE10=Home At Noon
TTITLE11=Cherry Pie
TTITLE12=Dead Shrimp Blues
TTITLE13=Blue Monday
TTITLE14=Queenbee
EXTD=
EXTT0=
EXTT1=
EXTT2=
EXTT3=
EXTT4=
EXTT5=
EXTT6=
EXTT7=
EXTT8=
EXTT9=
EXTT10=
EXTT11=
EXTT12=
EXTT13=
EXTT14=
PLAYORDER=
